<?xml version="1.0" encoding="UTF-8"?>
<svg width="20px" height="15px" viewBox="0 0 20 15" version="1.1" xmlns="http://www.w3.org/2000/svg" xmlns:xlink="http://www.w3.org/1999/xlink">
    <!-- Generator: Sketch 43.1 (39012) - http://www.bohemiancoding.com/sketch -->
    <title>ACCOUNT</title>
    <desc>Created with Sketch.</desc>
    <defs></defs>
    <g id="Page-1" stroke="none" stroke-width="1" fill="none" fill-rule="evenodd">
        <g id="ACCOUNT" fill-rule="nonzero" fill="#E5E5E5">
            <path d="M19.5103033,0.458085272 C19.1839482,0.15268371 18.791629,0 18.333382,0 L1.66665451,0 C1.20833455,0 0.816088264,0.152649568 0.489514317,0.458085272 C0.163122793,0.763555119 0,1.13061741 0,1.55954528 L0,13.4127791 C0,13.8418094 0.163122793,14.2089058 0.489514317,14.5143415 C0.816088264,14.8197773 1.20833455,14.9724951 1.66665451,14.9724951 L18.333382,14.9724951 C18.791629,14.9724951 19.1839117,14.8197773 19.5103033,14.5143415 C19.8366583,14.20894 20,13.8418436 20,13.4127791 L20,1.55954528 C20,1.13061741 19.8366583,0.763555119 19.5103033,0.458085272 Z M18.6665232,13.4130181 C18.6665232,13.4976224 18.6335775,13.5705159 18.5676133,13.6324497 C18.5016856,13.6939056 18.4235355,13.724736 18.333382,13.724736 L1.66665451,13.724736 C1.57642801,13.724736 1.49827793,13.6939056 1.43231371,13.6322107 C1.36638598,13.570311 1.33336739,13.4973834 1.33336739,13.4127791 L1.33336739,7.48624755 L18.6665596,7.48624755 L18.6665596,13.4130181 L18.6665232,13.4130181 Z M18.6665232,3.74293599 L1.3333309,3.74293599 L1.3333309,1.55940872 C1.3333309,1.47494103 1.36624004,1.40197925 1.43227722,1.34011366 C1.49827793,1.27855536 1.57642801,1.24765671 1.66661802,1.24765671 L18.3333455,1.24765671 C18.423499,1.24765671 18.5016491,1.27841879 18.5675768,1.34011366 C18.6335411,1.40197925 18.6664867,1.47494103 18.6664867,1.55940872 L18.6664867,3.74293599 L18.6665232,3.74293599 Z" id="Shape"></path>
        </g>
    </g>
</svg>