<?xml version="1.0" encoding="UTF-8"?>
<svg width="20px" height="20px" viewBox="0 0 20 20" version="1.1" xmlns="http://www.w3.org/2000/svg" xmlns:xlink="http://www.w3.org/1999/xlink">
    <!-- Generator: Sketch 43.1 (39012) - http://www.bohemiancoding.com/sketch -->
    <title>支付宝</title>
    <desc>Created with Sketch.</desc>
    <defs></defs>
    <g id="Page-1" stroke="none" stroke-width="1" fill="none" fill-rule="evenodd">
        <g id="支付宝" fill-rule="nonzero" fill="#E5E5E5">
            <path d="M19.9965895,3.84992965 C19.9965895,1.72964554 18.274724,0.00950708124 16.1523111,0.00950708124 L3.84768938,0.00950708124 C1.72527645,0.00950708124 0.00341096386,1.72964552 0.00341096386,3.84992965 L0.00341096386,16.1422097 C0.00341096386,18.2624939 1.72527645,19.9826323 3.84768938,19.9826323 L16.1523111,19.9826323 C18.0426996,19.9826323 19.615581,18.6162812 19.9379728,16.8205055 C18.9170653,16.3788813 14.4988318,14.4733095 12.1981264,13.3753488 C10.4469526,15.4956329 8.61273841,16.7668274 5.84554183,16.7668274 C3.08078759,16.7668274 1.23436161,15.0662082 1.45661659,12.9825228 C1.60315833,11.6161717 2.54102548,9.3812117 6.61732833,9.76427797 C8.76416488,9.96435081 9.74843693,10.3669364 11.4996108,10.9451957 C11.9538902,10.1156254 12.330014,9.20065813 12.6157704,8.2295729 L4.8466156,8.22957292 L4.8466156,7.46100042 L8.69089402,7.46100042 L8.69089402,6.08000985 L4.00155821,6.08000985 L4.00155821,5.23336014 L8.69089402,5.23336014 L8.69089402,3.23995147 C8.69089402,3.23995147 8.73241418,2.92764265 9.07922964,2.92764265 L11.0013688,2.92764265 L11.0013688,5.23336014 L16.0008847,5.23336014 L16.0008847,6.08000985 L11.0013688,6.08000983 L11.0013688,7.4610004 L15.080114,7.4610004 C14.7039902,8.98594584 14.1373621,10.3864557 13.4241923,11.608852 C14.6062957,12.0358367 19.9965895,13.6827778 19.9965895,13.6827778 L19.9965895,3.84992965 Z M5.54024651,15.4492745 C2.61673873,15.4492745 2.15513223,13.6071405 2.30900106,12.836128 C2.4628699,12.0699955 3.30792729,11.0696313 4.93209827,11.0696313 C6.79806313,11.0696313 8.47108139,11.5454142 10.4787033,12.5238192 C9.07190253,14.3561937 7.33782524,15.4492745 5.54024651,15.4492745 L5.54024651,15.4492745 L5.54024651,15.4492745 Z" id="Shape"></path>
        </g>
    </g>
</svg>