<?xml version="1.0" encoding="UTF-8"?>
<svg width="20px" height="20px" viewBox="0 0 20 20" version="1.1" xmlns="http://www.w3.org/2000/svg" xmlns:xlink="http://www.w3.org/1999/xlink">
    <!-- Generator: Sketch 43.1 (39012) - http://www.bohemiancoding.com/sketch -->
    <title>man</title>
    <desc>Created with Sketch.</desc>
    <defs></defs>
    <g id="Page-1" stroke="none" stroke-width="1" fill="none" fill-rule="evenodd">
        <g id="man" fill-rule="nonzero" fill="#E5E5E5">
            <path d="M19.8008113,17.0259773 C19.7230738,16.2099726 19.3467185,15.5524541 18.5803541,14.8940502 C17.8614471,14.276264 16.7643129,13.6221764 14.9118253,12.7067858 C13.2598477,11.8903384 13.1209992,11.6495102 13.1209992,11.1168328 C13.1209992,11.0932591 13.122761,11.0675825 13.1261744,11.0407992 C13.1499581,10.8543123 13.2512592,10.6201246 13.4190665,10.3635806 C13.5436007,10.1732201 13.6708877,10.0189396 13.748405,9.93803635 C14.1929183,9.4737559 14.513448,8.79255301 14.7282723,7.85535949 C14.8389326,7.37226435 14.9166702,6.83659871 14.9593928,6.26319299 C14.9887921,5.86764155 14.9922055,5.59593512 14.9916549,5.46921256 L14.9915448,5.19839153 C14.9915448,4.12108382 14.7707746,3.18223018 14.3351802,2.40806052 C13.9205066,1.67107757 13.3119297,1.0826201 12.5262961,0.659067949 C12.0267279,0.389796359 11.4718845,0.197333023 10.8772915,0.086879654 C10.5891341,0.033423765 10.3069226,0.0017707955 10.1022285,0 L9.82970668,0 C9.70825555,0.000996072466 9.44564363,0.0137236651 9.05089994,0.086879654 C8.45630692,0.197222348 7.90157366,0.389796359 7.40200541,0.659067949 C6.61637186,1.0826201 6.00790501,1.67107757 5.59323144,2.40806052 C5.15774711,3.18223018 4.93686681,4.12108382 4.93686681,5.19839153 L4.93686681,5.46589232 C4.93620615,5.59593512 4.93961956,5.86753088 4.96901888,6.26363569 C5.01163138,6.83682006 5.0892588,7.37226435 5.20002928,7.85535949 C5.41474342,8.79244234 5.73516299,9.47364523 6.17967633,9.93792567 C6.25719364,10.0189396 6.3845907,10.1733308 6.50901479,10.3635806 C6.67682215,10.6201246 6.77812319,10.8543123 6.80201702,11.0407992 C6.80554053,11.0674718 6.80719218,11.0931484 6.80719218,11.1168328 C6.80719218,11.6495102 6.6683437,11.8903384 5.01658632,12.7067858 C3.08966451,13.6588097 2.01102873,14.2930865 1.29333294,14.895821 C0.487769514,15.5724863 0.127930629,16.2313329 0.126939641,17.0317324 L0.00152455809,18.8308607 C-0.0222591626,19.1748377 0.235067482,19.4743235 0.575086599,19.4984506 C0.618359758,19.5014388 0.661853136,19.5 0.704575745,19.4939129 L19.2951871,19.4939129 C19.3234853,19.4980079 19.3522239,19.5 19.3809626,19.5 C19.745316,19.5 20,19.2435667 20,18.9284758 L19.8008113,17.0259773 Z" id="Fill-1"></path>
        </g>
    </g>
</svg>