<?xml version="1.0" encoding="UTF-8"?>
<svg width="20px" height="20px" viewBox="0 0 20 20" version="1.1" xmlns="http://www.w3.org/2000/svg" xmlns:xlink="http://www.w3.org/1999/xlink">
    <!-- Generator: Sketch 43.1 (39012) - http://www.bohemiancoding.com/sketch -->
    <title>MONEY</title>
    <desc>Created with Sketch.</desc>
    <defs></defs>
    <g id="Page-1" stroke="none" stroke-width="1" fill="none" fill-rule="evenodd">
        <g id="MONEY" fill-rule="nonzero" fill="#E5E5E5">
           <g id="Page-1">
                <path d="M10,20 C4.47715223,20 1.77635684e-15,15.5228478 1.77635684e-15,10 C1.77635684e-15,4.47715223 4.47715223,7.10542736e-15 10,7.10542736e-15 C15.5228478,7.10542736e-15 20,4.47715223 20,10 C20,15.5228478 15.5228478,20 10,20 Z" id="Shape" fill="#E5E5E5" fill-rule="nonzero" transform="translate(10.000000, 10.000000) scale(-1, 1) rotate(-180.000000) translate(-10.000000, -10.000000) "></path>
                <path d="M9.49788655,4.42440631 C9.64213987,4.28015301 9.83447763,4.20001221 10.04084,4.20001221 C10.2472024,4.20001221 10.4435472,4.28015301 10.5918076,4.42640981 L12.8537798,6.68838201 C13.152304,6.99091331 13.152304,7.47776831 12.8537798,7.77829601 C12.707523,7.92254941 12.5151852,8.00269011 12.3088228,8.00269011 C12.1024604,8.00269011 11.9101226,7.92254941 11.7638658,7.77829601 L10.0388365,6.05326671 L8.31380718,7.77829601 C8.16755035,7.92254941 7.97521257,8.00269011 7.76885017,8.00269011 C7.56248777,8.00269011 7.37015002,7.92254941 7.22389317,7.77829601 C6.92536894,7.47576481 6.92536894,6.98890981 7.22389317,6.68838201 L9.49788655,4.42440631 L9.49788655,4.42440631 Z" id="Shape-path" fill="#FFFFFF" transform="translate(10.038836, 6.101351) rotate(180.000000) translate(-10.038836, -6.101351) "></path>
                <path d="M14.0916115,15.5233091 L5.969348,15.5233091 C5.54460211,15.5233091 5.19999695,15.1787039 5.19999695,14.7539581 C5.19999695,14.3292122 5.54460211,13.9846071 5.969348,13.9846071 L9.24309701,13.9846071 L9.24309701,11.9790852 L7.16544846,11.9790851 C6.74070257,11.9790851 6.39609742,11.63448 6.39609742,11.2097341 C6.39609742,10.7849882 6.74070257,10.4403831 7.16544846,10.4403831 L9.24109351,10.4403831 L9.24109351,8.96379002 C9.24109351,8.53904413 9.58569866,8.19443897 10.0104445,8.19443897 C10.4351904,8.19443897 10.7797956,8.53904413 10.7797956,8.96379002 L10.7797956,10.4403831 L12.9095356,10.4403831 C13.3342815,10.4403831 13.6788866,10.7849882 13.6788866,11.2097341 C13.6788866,11.63448 13.3342815,11.9790851 12.9095356,11.9790851 L10.7817991,11.9790851 L10.7817991,13.9826035 L14.0916115,13.9826035 C14.5163574,13.9826035 14.8609625,14.3272087 14.8609625,14.7519545 C14.8609625,15.1767004 14.5163574,15.5233091 14.0916115,15.5233091 L14.0916115,15.5233091 Z" id="Shape-path" fill="#FFFFFF" transform="translate(10.030480, 11.858874) rotate(180.000000) translate(-10.030480, -11.858874) "></path>
            </g>
        </g>
    </g>
</svg>