<?xml version="1.0" standalone="no"?><!DOCTYPE svg PUBLIC "-//W3C//DTD SVG 1.1//EN" "http://www.w3.org/Graphics/SVG/1.1/DTD/svg11.dtd"><svg t="1505986872018" class="icon" style="" viewBox="0 0 1024 1024" version="1.1" xmlns="http://www.w3.org/2000/svg" p-id="2023" xmlns:xlink="http://www.w3.org/1999/xlink" width="32" height="32"><defs><style type="text/css"></style></defs><path d="M512 0C229.23264 0 0 229.23264 0 512s229.23264 512 512 512 512-229.23264 512-512S794.76736 0 512 0zM402.56512 719.26784H371.712v-257.1264a504.10496 504.10496 0 0 1-49.3056 59.392 219.25888 219.25888 0 0 0-19.3536-29.952c47.9232-45.1584 92.16-115.6608 119.3472-188.416l29.952 9.216a805.0688 805.0688 0 0 1-49.7664 102.2976zM473.088 497.16224l26.2656-12.4416c24.4224 36.4032 54.8352 84.7872 70.0416 112.4352l-28.1088 15.6672c-13.85472-29.0304-44.25728-78.7968-68.1984-115.6608z m247.9104-63.5904H661.504V676.864c0 24.8832-6.912 33.6384-23.5008 38.7072-17.5104 5.5296-47.4624 5.5296-97.2288 5.0688-2.304-8.2944-7.8336-21.6576-12.4416-30.4128 39.6288 1.3824 76.9536 0.9216 87.552 0.4608s14.7456-3.6864 14.7456-13.824V433.57184H442.65472v-30.8736h188.0064v-96.768H661.504v96.768h59.392z" fill="#36BC99" p-id="2024"></path></svg>